<svg width="99" height="85" viewBox="0 0 99 85" fill="none" xmlns="http://www.w3.org/2000/svg">
<path d="M49.2266 0L47.4844 3.09766L32.9141 29.0039L48.4805 56.6797H47.5977H47.5391L18.0625 56.6641L0 84.7422H33.8594L49.3594 59.5391L49.4727 59.7266L64.8516 84.7422H98.7109L80.6484 56.6641L51.1172 56.6797H49.9727L65.5391 29.0039L49.2266 0ZM49.2266 8.16014L60.9492 29.0039L49.2266 49.8476L37.5 29.0039L49.2266 8.16014ZM20.2461 60.6641L43.961 60.6758L31.6211 80.7422H7.33206L20.2461 60.6641ZM78.4649 60.6641L91.3789 80.7422H67.0899L54.7539 60.6758L78.4649 60.6641Z" fill="#F47900"/>
</svg>
