<svg width="33" height="32" viewBox="0 0 33 32" fill="none" xmlns="http://www.w3.org/2000/svg">
<g clip-path="url(#clip0_1_533)">
<path d="M28.4171 3.05762H7.85042C6.91341 3.05762 6.15381 3.81721 6.15381 4.75422V22.8514C6.15381 23.7884 6.91341 24.548 7.85042 24.548H28.4171C29.3541 24.548 30.1137 23.7884 30.1137 22.8514V4.75422C30.1137 3.81721 29.3541 3.05762 28.4171 3.05762Z" stroke="#FF6200" stroke-width="1.13114"/>
<path d="M23.3991 7.58191H2.83235C1.89534 7.58191 1.13574 8.34151 1.13574 9.27852V27.3757C1.13574 28.3127 1.89534 29.0723 2.83235 29.0723H23.3991C24.3361 29.0723 25.0957 28.3127 25.0957 27.3757V9.27852C25.0957 8.34151 24.3361 7.58191 23.3991 7.58191Z" stroke="#FF6200" stroke-width="1.13114"/>
</g>
<defs>
<clipPath id="clip0_1_533">
<rect width="31.67" height="31.67" fill="white" transform="translate(0.570068 0.22998)"/>
</clipPath>
</defs>
</svg>
