<svg width="233" height="85" viewBox="0 0 233 85" fill="none" xmlns="http://www.w3.org/2000/svg">
<g clip-path="url(#clip0_1_1487)">
<path d="M119.858 28.5084L130.679 27.8089C130.925 29.5781 131.378 30.8948 132.119 31.8411C133.312 33.3223 134.958 34.0629 137.138 34.0629C138.743 34.0629 140.018 33.6926 140.882 32.9108C141.705 32.2937 142.199 31.3062 142.199 30.2776C142.199 29.2901 141.746 28.3438 140.965 27.7266C140.142 26.986 138.208 26.2454 135.163 25.5871C130.185 24.4762 126.605 22.995 124.507 21.1023C122.409 19.3331 121.216 16.741 121.298 13.9843C121.298 12.0916 121.874 10.199 122.944 8.6355C124.178 6.86628 125.865 5.46736 127.881 4.68561C130.061 3.73928 133.106 3.24554 136.932 3.24554C141.623 3.24554 145.202 4.10958 147.671 5.8788C150.14 7.60688 151.621 10.4047 152.073 14.2312L141.376 14.8483C141.088 13.2026 140.512 12.0094 139.566 11.2276C138.619 10.4459 137.385 10.0756 135.78 10.0756C134.464 10.0756 133.476 10.3636 132.818 10.8985C132.201 11.3922 131.789 12.1328 131.831 12.9557C131.831 13.5729 132.16 14.1489 132.654 14.5192C133.188 15.0129 134.464 15.4655 136.48 15.877C141.458 16.9467 144.997 18.0165 147.177 19.1274C149.358 20.2383 150.921 21.5961 151.868 23.2007C152.855 24.8465 153.349 26.7392 153.308 28.6729C153.308 30.9771 152.649 33.2812 151.333 35.215C149.975 37.231 148.082 38.7945 145.861 39.7409C143.515 40.7695 140.553 41.3044 137.015 41.3044C130.761 41.3044 126.441 40.1112 124.013 37.6836C121.586 35.2561 120.146 32.2114 119.858 28.5084ZM5.02565 40.6872V3.90386H23.9929C27.4901 3.90386 30.2056 4.19187 32.0571 4.80904C33.8674 5.38507 35.472 6.57826 36.5417 8.1829C37.7349 9.95213 38.3109 12.0094 38.2698 14.1489C38.3932 17.7696 36.5417 21.2258 33.3737 23.0361C32.1394 23.7356 30.7816 24.2293 29.3827 24.4762C30.4113 24.7642 31.4399 25.2579 32.3451 25.834C33.0445 26.41 33.6205 27.0683 34.1554 27.7678C34.7726 28.4672 35.3074 29.249 35.76 30.0719L41.2733 40.7283H28.3541L22.2649 29.4136C21.4831 27.9735 20.8248 27.0272 20.2077 26.5746C19.3848 25.9985 18.3974 25.7105 17.4099 25.7105H16.4225V40.646H5.02565V40.6872ZM16.4225 18.7982H21.2363C22.2649 18.7159 23.2523 18.5514 24.2398 18.3045C24.9804 18.1811 25.6387 17.7696 26.0912 17.1524C27.2021 15.6712 27.0375 13.5729 25.6798 12.2974C24.9392 11.6802 23.4992 11.351 21.442 11.351H16.4225V18.7982ZM2.43359 72.204L13.2544 71.5045C13.5013 73.2738 13.9538 74.5904 14.6944 75.5367C15.8464 77.0179 17.5333 77.7997 19.714 77.7997C21.3186 77.7997 22.594 77.4294 23.458 76.6476C24.2809 75.9893 24.7746 75.043 24.7746 74.0144C24.7746 73.0269 24.3221 72.0806 23.5403 71.4634C22.7175 70.7228 20.7837 69.9822 17.6979 69.3239C12.7195 68.213 9.14002 66.7318 7.04169 64.8391C4.94336 63.0699 3.75019 60.4778 3.83248 57.7211C3.83248 55.8284 4.40849 53.9358 5.47823 52.3723C6.71254 50.6031 8.39943 49.2041 10.4155 48.4224C12.5961 47.4761 15.6407 46.9823 19.4671 46.9823C24.1575 46.9823 27.737 47.8464 30.2056 49.6156C32.6742 51.3848 34.1143 54.1415 34.5668 57.9679L23.8695 58.5851C23.5815 56.9393 23.0055 55.7461 22.0592 54.9644C21.154 54.1826 19.8785 53.8123 18.2739 53.8535C16.9573 53.8535 15.9699 54.1415 15.3116 54.7175C14.6533 55.2113 14.283 55.9519 14.3241 56.7747C14.3241 57.3919 14.6533 57.9679 15.147 58.3382C15.6819 58.832 16.9573 59.2846 18.9734 59.696C23.9518 60.7658 27.4901 61.8355 29.6707 62.9464C31.8514 64.0574 33.4148 65.4151 34.3611 67.0198C35.3486 68.6656 35.8423 70.5582 35.8423 72.4509C35.8423 74.755 35.1429 77.0179 33.8674 78.9517C32.5097 80.9678 30.617 82.5313 28.3953 83.4776C26.0501 84.5063 23.0877 85.0411 19.5494 85.0411C13.2955 85.0411 8.97545 83.8479 6.54797 81.4204C4.12049 78.9517 2.76274 75.907 2.43359 72.204Z" fill="#FF6200"/>
<path d="M57.1549 69.3236L67.1118 72.3271C66.5769 74.8369 65.466 77.2233 63.9437 79.3216C62.5448 81.1731 60.6933 82.6131 58.5949 83.5595C56.4554 84.5058 53.7399 84.9995 50.4484 84.9995C46.4574 84.9995 43.1659 84.4235 40.6561 83.2714C38.1052 82.1194 35.9245 80.0622 34.0731 77.141C32.2216 74.2197 31.3164 70.4756 31.3164 65.9086C31.3164 59.8193 32.921 55.1289 36.1714 51.8785C39.4218 48.6281 43.9888 46.9824 49.9135 46.9824C54.5628 46.9824 58.1835 47.9287 60.8579 49.7802C63.4911 51.6728 65.466 54.5529 66.7826 58.4204L56.7435 60.6422C56.4966 59.7782 56.1263 58.9141 55.6326 58.1736C55.0154 57.3095 54.2337 56.6512 53.2873 56.1575C52.341 55.6638 51.2713 55.458 50.2015 55.458C47.6095 55.458 45.6345 56.4866 44.2768 58.585C43.2482 60.1073 42.7133 62.5348 42.7133 65.8263C42.7133 69.8996 43.3305 72.6974 44.5648 74.2197C45.7991 75.7421 47.5272 76.4827 49.7901 76.4827C51.9707 76.4827 53.6165 75.8655 54.7274 74.6723C55.8383 73.3969 56.6612 71.6277 57.1549 69.3236ZM80.4013 47.5995H91.7571V60.4776H104.183V47.5995H115.621V84.3823H104.183V69.4882H91.7571V84.3823H80.4013V47.5995Z" fill="#FF6200"/>
<path d="M114.057 65.9909C114.057 59.9839 115.744 55.2935 119.076 51.9608C122.409 48.6281 127.099 46.9412 133.065 46.9412C139.196 46.9412 143.886 48.587 147.219 51.8785C150.551 55.17 152.197 59.7782 152.197 65.7029C152.197 70.023 151.457 73.5203 150.017 76.277C148.618 78.9925 146.437 81.2142 143.763 82.6954C141.006 84.2178 137.591 84.9995 133.518 84.9995C129.362 84.9995 125.947 84.3412 123.232 83.0246C120.434 81.6257 118.13 79.445 116.608 76.7707C114.921 73.8906 114.057 70.3111 114.057 65.9909ZM125.412 66.0321C125.412 69.735 126.112 72.4094 127.47 74.0552C128.827 75.6598 130.72 76.4827 133.106 76.4827C135.534 76.4827 137.426 75.7009 138.784 74.0963C140.142 72.4917 140.8 69.6528 140.8 65.5383C140.8 62.0822 140.101 59.5313 138.702 57.9678C137.303 56.3632 135.41 55.5815 133.024 55.5815C130.926 55.4992 128.91 56.4044 127.511 58.009C126.112 59.6136 125.412 62.288 125.412 66.0321ZM163.841 65.9909C163.841 59.9839 165.528 55.2935 168.861 51.9608C172.193 48.6281 176.884 46.9412 182.85 46.9412C188.98 46.9412 193.712 48.587 197.003 51.8785C200.295 55.17 201.982 59.7782 201.982 65.7029C201.982 70.023 201.241 73.5203 199.801 76.277C198.402 78.9925 196.221 81.2142 193.547 82.6954C190.79 84.2178 187.375 84.9995 183.302 84.9995C179.147 84.9995 175.732 84.3412 173.016 83.0246C170.218 81.6257 167.914 79.445 166.392 76.7707C164.705 73.8906 163.841 70.3111 163.841 65.9909ZM175.197 66.0321C175.197 69.735 175.896 72.4094 177.254 74.0552C178.612 75.6598 180.504 76.4827 182.891 76.4827C185.318 76.4827 187.211 75.7009 188.569 74.0963C189.926 72.4917 190.585 69.6528 190.585 65.5383C190.585 62.0822 189.885 59.5313 188.486 57.9678C187.087 56.3632 185.195 55.5815 182.808 55.5815C180.71 55.4992 178.653 56.4044 177.295 58.009C175.896 59.6136 175.197 62.288 175.197 66.0321Z" fill="#FF6200"/>
<path d="M200.787 47.5995H212.143V75.3307H229.876V84.3824H200.746V47.5995H200.787Z" fill="#FF6200"/>
<path d="M188.272 45.4764C199.704 36.8607 203.23 22.2558 196.146 12.8554C189.062 3.45494 174.052 2.81881 162.619 11.4345C151.186 20.0502 147.661 34.6551 154.744 44.0556C161.828 53.456 176.839 54.0921 188.272 45.4764Z" fill="white"/>
<mask id="mask0_1_1487" style="mask-type:luminance" maskUnits="userSpaceOnUse" x="151" y="5" width="49" height="47">
<path d="M188.272 45.4764C199.704 36.8607 203.23 22.2558 196.146 12.8554C189.062 3.45494 174.052 2.81881 162.619 11.4345C151.186 20.0502 147.661 34.6551 154.744 44.0556C161.828 53.456 176.839 54.0921 188.272 45.4764Z" fill="white"/>
</mask>
<g mask="url(#mask0_1_1487)">
<path d="M125.588 23.7934L184.667 -20.7288L225.548 33.5214L166.469 78.0435L125.588 23.7934Z" fill="white"/>
<mask id="mask1_1_1487" style="mask-type:luminance" maskUnits="userSpaceOnUse" x="125" y="-21" width="101" height="100">
<path d="M125.588 23.7934L184.667 -20.7288L225.548 33.5214L166.469 78.0435L125.588 23.7934Z" fill="white"/>
</mask>
<g mask="url(#mask1_1_1487)">
<path d="M188.272 45.4764C199.704 36.8607 203.23 22.2558 196.146 12.8554C189.062 3.45494 174.052 2.81881 162.619 11.4345C151.186 20.0502 147.661 34.6551 154.744 44.0556C161.828 53.456 176.839 54.0921 188.272 45.4764Z" fill="white"/>
<mask id="mask2_1_1487" style="mask-type:luminance" maskUnits="userSpaceOnUse" x="151" y="5" width="49" height="47">
<path d="M188.272 45.4764C199.704 36.8607 203.23 22.2558 196.146 12.8554C189.062 3.45494 174.052 2.81881 162.619 11.4345C151.186 20.0502 147.661 34.6551 154.744 44.0556C161.828 53.456 176.839 54.0921 188.272 45.4764Z" fill="white"/>
</mask>
<g mask="url(#mask2_1_1487)">
<path d="M142.04 27.4158L183.409 -3.75894L209.086 30.3163L167.717 61.491L142.04 27.4158Z" fill="white"/>
<mask id="mask3_1_1487" style="mask-type:luminance" maskUnits="userSpaceOnUse" x="142" y="-4" width="68" height="66">
<path d="M142.04 27.4158L183.409 -3.75894L209.086 30.3163L167.717 61.491L142.04 27.4158Z" fill="white"/>
</mask>
<g mask="url(#mask3_1_1487)">
<path d="M188.272 45.4764C199.705 36.8607 203.231 22.2558 196.147 12.8554C189.063 3.45494 174.052 2.81881 162.62 11.4345C151.187 20.0502 147.662 34.6551 154.745 44.0556C161.829 53.456 176.84 54.0921 188.272 45.4764Z" fill="white" stroke="black" stroke-width="1.64576" stroke-miterlimit="10"/>
</g>
<mask id="mask4_1_1487" style="mask-type:luminance" maskUnits="userSpaceOnUse" x="147" y="-2" width="57" height="62">
<path d="M147.935 47.8799L162.213 -1.91448L203.226 9.84607L188.948 59.6404L147.935 47.8799Z" fill="white"/>
</mask>
<g mask="url(#mask4_1_1487)">
<path d="M142.04 27.4157L183.409 -3.75901L209.086 30.3162L167.717 61.4909L142.04 27.4157Z" stroke="black" stroke-width="1.64576" stroke-miterlimit="10"/>
</g>
<path d="M188.272 45.4764C199.704 36.8607 203.23 22.2558 196.146 12.8554C189.062 3.45494 174.052 2.81881 162.619 11.4345C151.186 20.0502 147.661 34.6551 154.744 44.0556C161.828 53.456 176.839 54.0921 188.272 45.4764Z" stroke="black" stroke-width="1.64576" stroke-miterlimit="10"/>
<path d="M142.04 27.4158L183.409 -3.75894L209.086 30.3163L167.717 61.491L142.04 27.4158Z" fill="white"/>
<mask id="mask5_1_1487" style="mask-type:luminance" maskUnits="userSpaceOnUse" x="142" y="-4" width="68" height="66">
<path d="M142.04 27.4158L183.409 -3.75894L209.086 30.3163L167.717 61.491L142.04 27.4158Z" fill="white"/>
</mask>
<g mask="url(#mask5_1_1487)">
<path d="M188.272 45.4764C199.705 36.8607 203.231 22.2558 196.147 12.8554C189.063 3.45494 174.052 2.81881 162.62 11.4345C151.187 20.0502 147.662 34.6551 154.745 44.0556C161.829 53.456 176.84 54.0921 188.272 45.4764Z" fill="white" stroke="black" stroke-width="1.64576" stroke-miterlimit="10"/>
</g>
<mask id="mask6_1_1487" style="mask-type:luminance" maskUnits="userSpaceOnUse" x="147" y="-2" width="57" height="62">
<path d="M147.935 47.8799L162.213 -1.91448L203.226 9.84607L188.948 59.6404L147.935 47.8799Z" fill="white"/>
</mask>
<g mask="url(#mask6_1_1487)">
<path d="M142.04 27.4157L183.409 -3.75901L209.086 30.3162L167.717 61.4909L142.04 27.4157Z" stroke="black" stroke-width="1.64576" stroke-miterlimit="10"/>
</g>
<path d="M125.588 23.7934L184.667 -20.7288L225.548 33.5214L166.469 78.0435L125.588 23.7934Z" stroke="black" stroke-width="1.64576" stroke-miterlimit="10"/>
</g>
<path d="M188.272 45.4764C199.704 36.8607 203.23 22.2558 196.146 12.8554C189.062 3.45494 174.052 2.81881 162.619 11.4345C151.186 20.0502 147.661 34.6551 154.744 44.0556C161.828 53.456 176.839 54.0921 188.272 45.4764Z" stroke="black" stroke-width="1.64576" stroke-miterlimit="10"/>
<path d="M163.882 25.7516L167.997 22.8715L173.057 30.0717C173.921 31.2238 174.58 32.4581 175.073 33.8158C175.361 34.8444 175.279 35.9553 174.868 36.9428C174.333 38.1771 173.469 39.2057 172.317 39.9463C170.959 40.8926 169.807 41.4275 168.819 41.5921C167.873 41.7566 166.886 41.5921 165.98 41.1806C164.993 40.6869 164.129 39.9874 163.471 39.0823L167.009 35.7907C167.297 36.2433 167.667 36.6548 168.079 36.9839C168.367 37.1896 168.696 37.3131 169.066 37.3131C169.354 37.3131 169.642 37.1896 169.848 37.0251C170.259 36.7782 170.547 36.2845 170.506 35.7907C170.383 35.0913 170.095 34.3918 169.642 33.857L163.882 25.7516ZM176.225 30.3186L179.969 27.3562C180.381 27.8499 180.916 28.2202 181.492 28.426C182.315 28.6728 183.179 28.5082 183.878 27.9734C184.372 27.6442 184.783 27.1916 184.948 26.6156C185.195 25.875 184.783 25.0521 184.043 24.8053C183.919 24.7641 183.796 24.723 183.672 24.723C183.179 24.6818 182.315 24.8876 181.039 25.4224C178.941 26.2865 177.295 26.6156 176.061 26.4922C174.868 26.3687 173.757 25.7516 173.098 24.723C172.605 24.0235 172.358 23.2007 172.317 22.3778C172.317 21.4315 172.564 20.4851 173.098 19.7034C173.88 18.5925 174.826 17.6462 175.979 16.9056C177.707 15.7124 179.229 15.1364 180.545 15.1364C181.862 15.1364 183.096 15.7536 184.248 17.029L180.545 19.9503C179.805 19.004 178.406 18.7982 177.46 19.5388L177.336 19.6623C176.925 19.9091 176.637 20.2794 176.472 20.732C176.349 21.0612 176.431 21.4315 176.637 21.7195C176.801 21.9252 177.048 22.0898 177.336 22.0898C177.665 22.1309 178.241 21.9663 179.064 21.596C181.122 20.732 182.685 20.2383 183.755 20.0737C184.66 19.9091 185.606 19.9914 186.47 20.3617C187.252 20.6909 187.91 21.2669 188.363 21.9663C188.939 22.7892 189.268 23.7767 189.309 24.8053C189.35 25.875 189.062 26.9036 188.486 27.8088C187.746 28.9197 186.799 29.866 185.689 30.6066C183.426 32.1701 181.574 32.8284 180.093 32.5815C178.488 32.3346 177.172 31.5118 176.225 30.3186Z" fill="black"/>
</g>
</g>
</g>
<defs>
<clipPath id="clip0_1_1487">
<rect width="232.31" height="84.47" fill="white" transform="translate(0 0.530029)"/>
</clipPath>
</defs>
</svg>
