<svg width="10" height="10" viewBox="0 0 10 10" fill="none" xmlns="http://www.w3.org/2000/svg">
<path d="M5.48277 0.518542L6.61064 2.8039C6.68907 2.96285 6.84072 3.07299 7.01614 3.09843L9.53825 3.46493C9.98006 3.52918 10.1563 4.07194 9.83675 4.38337L8.01176 6.16226C7.88494 6.28596 7.82695 6.46431 7.85699 6.6389L8.28773 9.15079C8.36324 9.59072 7.90142 9.92614 7.50634 9.71858L5.2506 8.53273C5.09374 8.45033 4.90621 8.45033 4.74935 8.53273L2.49361 9.71858C2.09854 9.92634 1.63671 9.59072 1.71222 9.15079L2.14297 6.6389C2.17301 6.46431 2.11502 6.28596 1.98819 6.16226L0.163202 4.38337C-0.156364 4.07173 0.0198979 3.52897 0.4617 3.46493L2.98381 3.09843C3.15924 3.07299 3.31089 2.96285 3.38932 2.8039L4.51719 0.518542C4.71452 0.11825 5.28523 0.11825 5.48277 0.518542Z" fill="#FF6200"/>
</svg>
