<svg width="92" height="93" viewBox="0 0 92 93" fill="none" xmlns="http://www.w3.org/2000/svg">
<path d="M45.8153 0.0218514C45.4091 0.0921714 45.0419 0.295291 44.7528 0.584351C41.4638 3.68591 32.8857 9.17029 24.0653 14.0844C15.245 18.9984 6.01845 23.5062 1.44033 25.0844C0.760651 25.3344 0.276271 25.9281 0.159092 26.639C0.0419115 27.35 0.315351 28.0687 0.877851 28.5219L30.0029 50.5844C27.5341 49.5531 24.7919 48.6625 21.7529 48.3344C15.2607 47.639 7.67473 49.2953 0.627851 55.7094C0.198171 56.1156 -0.0283885 56.6937 0.00285151 57.2875C0.0419115 57.8734 0.338791 58.4203 0.815351 58.7719L44.5653 91.6469C45.3388 92.2328 46.4169 92.1781 47.1278 91.5219C50.9013 88.1156 59.3388 82.4437 67.8154 77.3969C76.2919 72.35 85.0107 67.7797 88.8779 66.5219C89.5654 66.2875 90.0732 65.7015 90.1982 64.9828C90.331 64.2719 90.0654 63.5453 89.5029 63.0844L61.8154 42.1469C62.5263 42.3422 63.2372 42.5453 64.1279 42.7094C66.5732 43.1625 69.5966 43.5062 72.8779 43.3969C79.4482 43.1781 87.1122 41.2328 91.6279 34.8969C92.245 34.014 92.0575 32.7953 91.1904 32.1469L47.3153 0.396851C46.8857 0.0765314 46.3466 -0.0562686 45.8153 0.0218514ZM46.1278 4.45935L87.0028 34.0219C83.4013 37.7328 77.9716 39.2172 72.7528 39.3969C69.8075 39.4984 66.9872 39.1781 64.8153 38.7719C63.7294 38.5687 62.8075 38.3656 62.1278 38.1469C61.495 37.9437 61.1122 37.7484 61.1278 37.7719L61.0653 37.7094L38.7528 20.9594C38.0575 20.4203 37.0966 20.3969 36.3778 20.8969L33.7528 22.6469C33.2216 23.014 32.9013 23.6078 32.8857 24.2562C32.8778 24.8969 33.1747 25.5141 33.6903 25.8969L84.3778 64.2719C79.4482 66.35 72.9091 69.7406 65.8153 73.9594C57.87 78.6937 50.3544 83.7015 45.8153 87.5219L5.31533 57.2094C10.9091 52.9047 16.4325 51.7406 21.3778 52.2719C26.9091 52.8656 31.7216 55.4515 34.6278 57.6469L53.7528 72.0844C54.5263 72.6703 55.6044 72.6156 56.3153 71.9594L58.4403 70.0219C58.87 69.6156 59.0966 69.0375 59.0653 68.4437C59.0263 67.8578 58.7294 67.3109 58.2528 66.9594L5.87783 27.3344C11.2294 25.1859 18.2607 21.8969 26.0028 17.5844C34.2607 12.9906 41.7763 8.18591 46.1278 4.45935Z" fill="#F47900"/>
</svg>
