<svg width="150" height="150" viewBox="0 0 150 150" fill="none" xmlns="http://www.w3.org/2000/svg">
<g clip-path="url(#clip0_2_2432)">
<path d="M143.56 6.4403C134.973 -2.14633 121.075 -2.1472 112.488 6.4403C108.391 10.5378 103.323 18.7986 100.165 26.5289C97.0394 34.18 86.7272 44.649 79.3467 47.6645C71.6164 50.8221 63.3559 55.8896 59.2578 59.9877L59.257 59.9885C55.1595 64.0866 50.0926 72.3462 46.9347 80.0759C43.9189 87.4588 34.1929 97.0338 26.5297 100.165C18.7997 103.322 10.5392 108.39 6.44114 112.487C-2.12556 121.054 -2.12556 134.993 6.44114 143.559C15.0278 152.146 28.9256 152.147 37.5128 143.559C41.6103 139.462 46.6781 131.201 49.8363 123.471C52.8521 116.088 62.5781 106.513 70.2412 103.382C77.9715 100.224 86.2321 95.1565 90.3295 91.059C94.427 86.9616 99.4947 78.701 102.653 70.9705C105.778 63.3193 116.091 52.8504 123.471 49.8351C131.201 46.6772 139.462 41.6097 143.56 37.512C152.127 28.9456 152.127 15.0067 143.56 6.4403ZM31.2981 137.345L31.2975 137.346C26.1456 142.497 17.8074 142.498 12.655 137.345C7.51516 132.205 7.51516 123.842 12.6544 118.702L12.655 118.702C12.6562 118.701 12.6573 118.7 12.6582 118.699C17.8098 113.551 26.1456 113.549 31.2981 118.702C36.4376 123.842 36.4376 132.205 31.2981 137.345ZM42.1007 119.221C41.0346 116.776 39.5097 114.485 37.5125 112.488C35.5455 110.521 33.2692 108.979 30.7962 107.894C40.0476 103.721 50.5731 93.3307 54.6629 84.3401C55.7475 86.8142 57.2897 89.0918 59.2575 91.0593C61.2245 93.0263 63.5009 94.5685 65.9741 95.6528C56.7181 99.8282 46.1862 110.226 42.1007 119.221ZM84.1151 84.8449C78.9629 89.997 70.6244 89.9976 65.4717 84.8449C60.3219 79.6951 60.3178 71.3589 65.4688 66.2048C65.4697 66.2039 65.4705 66.203 65.4714 66.2021L65.472 66.2015C65.4741 66.1995 65.4761 66.1974 65.4782 66.1954C70.6291 61.0511 78.9623 61.0488 84.1151 66.2015C89.2669 71.3537 89.2675 79.6924 84.1151 84.8449ZM94.9233 66.7043C93.8387 64.231 92.2968 61.9541 90.3295 59.9874C88.3619 58.0198 86.0844 56.4773 83.6103 55.3927C92.745 51.2285 103.662 40.1698 107.901 30.7813C108.967 33.2253 110.491 35.5157 112.488 37.512C114.456 39.4796 116.733 41.0223 119.207 42.1066C110.077 46.2685 99.1663 57.3184 94.9233 66.7043ZM137.345 31.2978C137.344 31.299 137.343 31.2999 137.342 31.301C132.191 36.4491 123.855 36.4506 118.702 31.2978C113.563 26.1589 113.563 17.7978 118.699 12.6574C118.7 12.6565 118.701 12.6553 118.702 12.6545L118.703 12.6539C123.855 7.5026 132.193 7.50172 137.345 12.6545C142.485 17.7943 142.485 26.1577 137.345 31.2978Z" fill="#FE6906"/>
<path d="M128.024 26.371C130.451 26.371 132.419 24.4036 132.419 21.9768C132.419 19.5499 130.451 17.5825 128.024 17.5825C125.597 17.5825 123.63 19.5499 123.63 21.9768C123.63 24.4036 125.597 26.371 128.024 26.371Z" fill="#FE6906"/>
<path d="M74.7929 79.9163C77.2198 79.9163 79.1872 77.9489 79.1872 75.522C79.1872 73.0952 77.2198 71.1278 74.7929 71.1278C72.366 71.1278 70.3987 73.0952 70.3987 75.522C70.3987 77.9489 72.366 79.9163 74.7929 79.9163Z" fill="#FE6906"/>
<path d="M21.977 132.419C24.4039 132.419 26.3712 130.451 26.3712 128.024C26.3712 125.597 24.4039 123.63 21.977 123.63C19.5501 123.63 17.5828 125.597 17.5828 128.024C17.5828 130.451 19.5501 132.419 21.977 132.419Z" fill="#FE6906"/>
</g>
<defs>
<clipPath id="clip0_2_2432">
<rect width="150" height="150" fill="white"/>
</clipPath>
</defs>
</svg>
