<svg width="150" height="150" viewBox="0 0 150 151" fill="none" xmlns="http://www.w3.org/2000/svg">
<g clip-path="url(#clip0_2_2420)">
<path d="M148.781 57.8519C147.984 57.3007 147.132 56.7143 146.229 56.0931C138.92 51.0668 128.911 44.1833 118.63 35.3835C115.085 32.3493 111.877 29.1548 109.095 25.8885C100.814 16.1663 90.2142 9.82914 77.5909 7.0539C65.083 4.30565 51.3025 6.50451 36.6301 13.5917C24.7121 19.3485 14.7565 27.1114 8.5038 32.6105C4.15484 36.4349 1.51237 41.944 1.25596 47.7252L0.00307957 75.9151C-0.0482895 77.0652 0.602096 78.1309 1.64733 78.6115C54.9071 103.103 98.8003 143.919 99.2378 144.328C99.7663 144.824 100.46 145.093 101.172 145.093C101.336 145.093 108.2 143.896 108.2 143.896C117.486 142.257 124.225 134.225 124.225 124.796V110.54C124.225 109.452 123.602 108.46 122.621 107.989C121.641 107.518 120.477 107.651 119.628 108.33L107.386 118.124L76.9397 97.2746C75.2458 96.1149 74.3921 94.061 74.7647 92.0419L76.3533 83.4376L114.828 79.2497C116.264 79.0934 117.352 77.8806 117.352 76.4366V68.5423L120.557 68.1418C121.973 67.9646 123.035 66.7609 123.035 65.3339V59.2366C133.349 62.6984 141.61 63.953 147.626 62.9714C148.765 62.785 149.677 61.9266 149.93 60.8012C150.185 59.675 149.73 58.5088 148.781 57.8519ZM111.693 73.8982L77.4259 77.6281L77.5091 77.178C77.9222 74.9395 79.7171 73.2465 81.976 72.964L111.693 69.2493V73.8982H111.693ZM121.247 52.6057C121.206 52.5896 121.165 52.5743 121.124 52.5604C118.975 51.7672 116.712 50.8709 114.396 49.8962C114.367 49.884 114.338 49.8722 114.309 49.8609C114.064 49.7677 108.252 47.5615 101.69 46.3251C91.9756 44.4946 85.6184 45.7692 82.7949 50.1134C81.9434 51.4238 82.3147 53.176 83.6255 54.0279C84.9349 54.879 86.6876 54.5076 87.54 53.1977C90.1955 49.1108 103.835 51.9327 112.246 55.131C113.992 55.8659 115.711 56.5572 117.376 57.1962V62.8355L81.2734 67.3482C76.5561 67.938 72.8066 71.4755 71.9438 76.151L69.1995 91.015C68.4211 95.2316 70.2042 99.5213 73.7417 101.944L105.917 123.977C106.945 124.681 108.312 124.63 109.284 123.852L118.565 116.427V124.795C118.565 131.473 113.792 137.162 107.216 138.322L102.054 139.234C95.0864 132.917 54.4805 97.0848 5.74031 74.2713L6.90918 47.9764C6.97056 46.602 7.21739 45.2494 7.62835 43.9522L53.9646 68.8827C54.3912 69.1121 54.8501 69.221 55.3028 69.221C56.3106 69.221 57.2866 68.6816 57.7968 67.7317C58.5373 66.3552 58.0223 64.6391 56.6458 63.899L10.273 38.9489C10.862 38.1979 11.5176 37.4958 12.2407 36.8597C13.8532 35.4414 15.4447 34.1041 17.0163 32.8351L50.3309 49.6197C50.7392 49.8256 51.1741 49.9227 51.6021 49.9227C52.6368 49.9227 53.6337 49.3529 54.1313 48.366C54.8344 46.9703 54.2732 45.269 52.8776 44.566L21.9895 29.0037C48.6335 9.47608 68.5208 10.8548 76.3755 12.5813C87.765 15.0853 97.324 20.7969 104.786 29.5579C107.761 33.0497 111.181 36.4562 114.951 39.6829C123.117 46.6725 131.321 52.6209 137.854 57.1823C133.161 56.4732 127.565 54.936 121.247 52.6057Z" fill="#FF6200"/>
</g>
<defs>
<clipPath id="clip0_2_2420">
<rect width="150" height="150" fill="white" transform="translate(0 0.5)"/>
</clipPath>
</defs>
</svg>
