<svg width="49" height="50" viewBox="0 0 49 50" fill="none" xmlns="http://www.w3.org/2000/svg">
<g clip-path="url(#clip0_2_2326)">
<path d="M38.7916 30.7508V28.4828V10.2883C38.7916 8.03633 36.9593 6.20496 34.7083 6.20496H4.08327C1.83233 6.20496 0 8.03624 0 10.2883V30.705C0 32.9569 1.83233 34.7883 4.08337 34.7883H28.5834C28.5834 35.2558 28.7349 35.6646 29.022 35.9706C30.1047 37.1101 31.9669 38.8717 33.6098 40.4258C34.4312 41.2014 35.183 41.9122 35.7252 42.4406C36.0662 42.7725 36.5088 42.955 36.9714 42.955C37.9742 42.955 38.7917 42.1196 38.7917 41.0937V38.8905C44.0614 39.084 46.9584 40.7568 46.9584 41.9341C46.9584 42.4984 47.415 42.955 47.9792 42.955C48.5435 42.955 49.0001 42.4984 49.0001 41.9341C49 36.0862 44.508 31.2682 38.7916 30.7508ZM4.08337 8.24659H34.7084C34.7508 8.24659 34.7863 8.26812 34.828 8.2708L20.2592 20.2354C19.7249 20.5823 18.9752 20.5166 18.6243 20.3013L3.96441 8.27071C4.00594 8.26822 4.04126 8.24659 4.08337 8.24659ZM4.08337 32.7466C2.95684 32.7466 2.04173 31.8304 2.04173 30.705V10.2883C2.04173 9.9992 2.10566 9.72607 2.21447 9.47657L17.4201 21.9461C18.0142 22.3339 18.6981 22.5383 19.396 22.5383C20.0898 22.5383 20.7737 22.335 21.4676 21.8794L36.5772 9.47647C36.6861 9.72607 36.75 9.99911 36.75 10.2883V26.6655C36.3714 26.7151 36.0096 26.859 35.7252 27.1361C35.1829 27.6645 34.4312 28.3753 33.6098 29.1508C32.3359 30.3559 30.9405 31.6775 29.8676 32.7467H4.08337V32.7466ZM37.7709 36.83C37.2066 36.83 36.75 37.2866 36.75 37.8508V40.5913C36.2575 40.1187 35.6553 39.5496 35.0134 38.9424C33.4941 37.5049 31.7834 35.8889 30.7187 34.7883C31.7854 33.6857 33.4941 32.0707 35.0134 30.6342C35.7013 29.9842 36.3413 29.3791 36.75 28.9235V31.7258C36.75 32.2901 37.2066 32.7467 37.7709 32.7467C41.605 32.7467 44.8987 35.1074 46.2725 38.452C44.2786 37.4321 41.3099 36.83 37.7709 36.83Z" fill="#FF5900"/>
</g>
<defs>
<clipPath id="clip0_2_2326">
<rect width="49" height="49" fill="white" transform="translate(0 0.0799561)"/>
</clipPath>
</defs>
</svg>
