<svg width="150" height="150" viewBox="0 0 150 150" fill="none" xmlns="http://www.w3.org/2000/svg">
<g clip-path="url(#clip0_2_2422)">
<path d="M74.9999 116.129C97.7148 116.129 116.129 97.715 116.129 75C116.129 52.2851 97.7148 33.871 74.9999 33.871C52.2849 33.871 33.8708 52.2851 33.8708 75C33.8708 97.715 52.2849 116.129 74.9999 116.129Z" fill="#FFA64D"/>
<path d="M150 71.054L149.18 63.2661L142.314 60.6919L147.537 55.5484L145.118 48.1016L137.869 47.0105L141.907 40.8919L137.993 34.1105L130.677 34.5508L133.357 27.7258L128.115 21.9073L121.048 23.8597L122.25 16.6258L115.916 12.0242L109.408 15.4016L109.081 8.07823L101.932 4.89435L96.2661 9.54919L94.4226 2.45323L86.7629 0.827419L82.1952 6.55645L78.9145 0H71.0855L67.8073 6.55645L63.2371 0.825L55.5774 2.45081L53.7339 9.54919L48.0677 4.89194L40.921 8.07581L40.5895 15.3992L34.0839 12.0218L27.75 16.6258L28.9524 23.8597L21.8855 21.9073L16.6427 27.7258L19.3234 34.5508L12.0073 34.1105L8.09274 40.8919L12.1306 47.0105L4.88226 48.1016L2.4629 55.5484L7.68629 60.6919L0.820161 63.2661L0 71.054L6.18145 75L0 78.946L0.820161 86.7339L7.68629 89.3081L2.4629 94.4516L4.88226 101.898L12.1306 102.99L8.09274 109.108L12.0073 115.89L19.3234 115.449L16.6427 122.274L21.8855 128.093L28.9524 126.14L27.75 133.374L34.0839 137.976L40.5895 134.598L40.921 141.922L48.0677 145.106L53.7339 140.448L55.5774 147.544L63.2371 149.17L67.8073 143.439L71.0855 150H78.9145L82.1927 143.444L86.7629 149.175L94.4226 147.549L96.2661 140.453L101.932 145.11L109.081 141.927L109.408 134.603L115.916 137.981L122.25 133.379L121.048 126.145L128.115 128.098L133.357 122.279L130.677 115.454L137.993 115.894L141.907 109.113L137.869 102.994L145.118 101.903L147.537 94.4565L142.314 89.3129L149.18 86.7387L150 78.946L143.819 75L150 71.054ZM144.682 66.7476L144.873 68.5863L140.231 71.5524C140.112 69.2734 139.873 67.0258 139.524 64.8145L144.682 66.7476ZM141.443 52.4395L142.014 54.1984L138.082 58.0669C137.492 55.8677 136.785 53.7194 135.977 51.6169L141.443 52.4395ZM75 135.484C41.6492 135.484 14.5161 108.351 14.5161 75C14.5161 41.6492 41.6492 14.5161 75 14.5161C108.351 14.5161 135.484 41.6492 135.484 75C135.484 108.351 108.351 135.484 75 135.484ZM135.3 39.1186L136.224 40.7202L133.171 45.3411C132.133 43.3137 130.996 41.3492 129.76 39.4524L135.3 39.1186ZM127.759 28.7395L125.729 33.9073C124.297 32.1436 122.782 30.4476 121.178 28.8411L126.523 27.3653L127.759 28.7395ZM116.985 18.7815L116.076 24.2589C114.312 22.829 112.471 21.496 110.565 20.2524L115.49 17.6952L116.985 18.7815ZM102.692 10.529L104.378 11.2815L104.625 16.8121C102.615 15.7839 100.546 14.8573 98.4218 14.0371L102.692 10.529ZM88.6815 6.17903L90.4911 6.56371L91.8774 11.9008C89.7097 11.3202 87.4984 10.8435 85.2484 10.4879L88.6815 6.17903ZM75.9242 4.83871L78.3871 9.76452C77.2669 9.70645 76.1371 9.67742 75 9.67742C73.8629 9.67742 72.7331 9.70645 71.6129 9.76452L74.0758 4.83871H75.9242ZM61.3185 6.17903L64.7516 10.4879C62.5016 10.8435 60.2903 11.3202 58.1226 11.9008L59.5089 6.56371L61.3185 6.17903ZM47.3081 10.529L51.5758 14.0371C49.4516 14.8573 47.3806 15.7839 45.3702 16.8145L45.6194 11.2815L47.3081 10.529ZM34.5097 17.6952L39.4355 20.2524C37.529 21.496 35.6879 22.829 33.9242 24.2589L33.0145 18.7815L34.5097 17.6952ZM23.4774 27.3677L28.8218 28.8435C27.2177 30.45 25.7032 32.1435 24.271 33.9097L22.2411 28.7419L23.4774 27.3677ZM14.7 39.1186L20.2403 39.4524C19.004 41.3492 17.8669 43.3161 16.829 45.3436L13.7782 40.7226L14.7 39.1186ZM8.55726 52.4395L14.0202 51.6169C13.2121 53.7169 12.5056 55.8677 11.9153 58.0669L7.98387 54.1984L8.55726 52.4395ZM5.12661 68.5863L5.31774 66.7476L10.4758 64.8121C10.1274 67.0234 9.8879 69.271 9.76936 71.55L5.12661 68.5863ZM5.31774 83.2524L5.12661 81.4137L9.76936 78.4476C9.8879 80.7266 10.1274 82.9742 10.4758 85.1855L5.31774 83.2524ZM8.55726 97.5605L7.98629 95.8016L11.9177 91.9331C12.5081 94.1323 13.2145 96.2807 14.0226 98.3831L8.55726 97.5605ZM14.7 110.881L13.7758 109.28L16.829 104.659C17.8669 106.686 19.004 108.651 20.2403 110.548L14.7 110.881ZM22.2411 121.26L24.271 116.093C25.7032 117.856 27.2177 119.552 28.8218 121.159L23.4774 122.635L22.2411 121.26ZM33.0145 131.219L33.9242 125.741C35.6879 127.171 37.529 128.504 39.4355 129.748L34.5097 132.305L33.0145 131.219ZM47.3081 139.471L45.6194 138.719L45.3702 133.185C47.3831 134.214 49.4516 135.143 51.5758 135.963L47.3081 139.471ZM61.3185 143.821L59.5089 143.436L58.1226 138.099C60.2903 138.68 62.5016 139.156 64.7516 139.512L61.3185 143.821ZM74.0758 145.161L71.6129 140.235C72.7331 140.294 73.8629 140.323 75 140.323C76.1371 140.323 77.2669 140.294 78.3871 140.235L75.9242 145.161H74.0758ZM88.6815 143.821L85.2484 139.512C87.4984 139.156 89.7097 138.68 91.8774 138.099L90.4911 143.436L88.6815 143.821ZM102.692 139.471L98.4242 135.963C100.548 135.145 102.617 134.216 104.627 133.188L104.381 138.719L102.692 139.471ZM115.49 132.305L110.565 129.748C112.471 128.504 114.312 127.171 116.076 125.741L116.985 131.219L115.49 132.305ZM126.523 122.632L121.178 121.156C122.782 119.55 124.297 117.856 125.729 116.09L127.759 121.258L126.523 122.632ZM135.3 110.881L129.76 110.55C130.996 108.651 132.135 106.686 133.171 104.659L136.222 109.28L135.3 110.881ZM141.443 97.5605L135.98 98.3831C136.788 96.2831 137.494 94.1323 138.085 91.9331L142.016 95.8016L141.443 97.5605ZM144.873 81.4137L144.682 83.2524L139.524 85.1879C139.873 82.9766 140.112 80.729 140.231 78.45L144.873 81.4137Z" fill="#333333"/>
<path d="M87.0969 75C87.0969 68.3298 81.6703 62.9032 75.0001 62.9032C68.3299 62.9032 62.9033 68.3298 62.9033 75C62.9033 81.6701 68.3299 87.0967 75.0001 87.0967C81.6703 87.0967 87.0969 81.6701 87.0969 75ZM75.0001 82.258C70.9985 82.258 67.742 79.0016 67.742 75C67.742 70.9984 70.9985 67.7419 75.0001 67.7419C79.0017 67.7419 82.2582 70.9984 82.2582 75C82.2582 79.0016 79.0017 82.258 75.0001 82.258Z" fill="#333333"/>
<path d="M75 58.0645C79.0016 58.0645 82.2581 54.808 82.2581 50.8064C82.2581 46.8048 79.0016 43.5483 75 43.5483C70.9984 43.5483 67.7419 46.8048 67.7419 50.8064C67.7419 54.808 70.9984 58.0645 75 58.0645ZM75 48.387C76.3355 48.387 77.4194 49.4733 77.4194 50.8064C77.4194 52.1395 76.3355 53.2258 75 53.2258C73.6645 53.2258 72.5807 52.1395 72.5807 50.8064C72.5807 49.4733 73.6645 48.387 75 48.387Z" fill="#333333"/>
<path d="M58.8944 69.7645C60.1307 65.9588 58.038 61.8556 54.2323 60.6193C50.4267 59.3854 46.3234 61.4758 45.0871 65.2814C43.8509 69.087 45.9436 73.1903 49.7492 74.4266C50.492 74.6685 51.2444 74.7822 51.9847 74.7822C55.0428 74.7822 57.8976 72.8298 58.8944 69.7645ZM54.2904 68.2717C53.8791 69.5395 52.5 70.2338 51.242 69.825C49.9742 69.4137 49.2775 68.0443 49.6863 66.7766C50.0178 65.7556 50.9686 65.1048 51.9896 65.1048C52.2388 65.1048 52.488 65.1435 52.7371 65.2233C54.0049 65.6346 54.7017 67.0016 54.2904 68.2717Z" fill="#333333"/>
<path d="M65.0467 88.7008C63.4765 87.5612 61.5531 87.1064 59.6467 87.404C57.7306 87.7064 56.0491 88.7371 54.9096 90.3072C53.7677 91.875 53.308 93.7935 53.6128 95.7096C53.9152 97.6258 54.9459 99.3072 56.5136 100.447C57.7693 101.356 59.2451 101.835 60.7644 101.835C61.1467 101.835 61.5314 101.804 61.916 101.744C63.8322 101.441 65.5136 100.41 66.6531 98.8403C67.7951 97.2725 68.2548 95.354 67.9499 93.4403C67.6451 91.5242 66.6144 89.8403 65.0467 88.7008ZM62.7386 95.9951C61.9499 97.0742 60.4354 97.3161 59.3588 96.5298C58.8362 96.15 58.4927 95.5887 58.391 94.9524C58.2919 94.3137 58.4443 93.675 58.8241 93.1524C59.2039 92.6298 59.7677 92.2862 60.4039 92.1846C60.5322 92.1653 60.658 92.1532 60.7862 92.1532C61.2943 92.1532 61.7854 92.3129 62.204 92.6153C63.2806 93.3991 63.5201 94.9161 62.7386 95.9951Z" fill="#333333"/>
<path d="M90.3558 87.404C88.4542 87.1064 86.5259 87.5612 84.9558 88.7008C83.388 89.8403 82.3574 91.5241 82.055 93.4379C81.7501 95.354 82.2098 97.2701 83.3517 98.8379C84.4912 100.406 86.1727 101.436 88.0888 101.741C88.4711 101.802 88.8558 101.833 89.2404 101.833C90.7598 101.833 92.2356 101.356 93.4913 100.444C95.059 99.3048 96.0896 97.6233 96.3921 95.7072C96.6969 93.7911 96.2372 91.875 95.0953 90.3048C93.9533 88.7371 92.2719 87.7064 90.3558 87.404ZM90.6437 96.5298C89.5671 97.3137 88.0501 97.0717 87.2638 95.9951C86.4824 94.9161 86.7195 93.4016 87.8009 92.6177C88.2195 92.3153 88.7106 92.1556 89.2187 92.1556C89.3469 92.1556 89.4727 92.1653 89.6009 92.1871C90.2396 92.2887 90.8009 92.6322 91.1808 93.1548C91.5582 93.6774 91.713 94.3161 91.6138 94.9548C91.5098 95.5887 91.1662 96.15 90.6437 96.5298Z" fill="#333333"/>
<path d="M95.7678 60.6218C91.9621 61.8581 89.8694 65.9613 91.1057 69.767C92.1025 72.8323 94.9573 74.7823 98.0154 74.7823C98.7557 74.7823 99.5081 74.6686 100.251 74.4267H100.253C104.057 73.1904 106.149 69.0871 104.913 65.2815C103.677 61.4758 99.5734 59.3807 95.7678 60.6218ZM98.7557 69.825C97.4976 70.2363 96.1186 69.542 95.7073 68.2718C95.296 67.0017 95.9928 65.6347 97.2605 65.2234C97.5097 65.1436 97.7589 65.1049 98.0081 65.1049C99.0291 65.1049 99.9799 65.7557 100.311 66.7767C100.723 68.0444 100.026 69.4113 98.7557 69.825Z" fill="#333333"/>
</g>
<defs>
<clipPath id="clip0_2_2422">
<rect width="150" height="150" fill="white"/>
</clipPath>
</defs>
</svg>
