<svg width="48" height="49" viewBox="0 0 48 49" fill="none" xmlns="http://www.w3.org/2000/svg">
<g clip-path="url(#clip0_2_2318)">
<path d="M23 18.08H25C25.5523 18.08 26 17.6322 26 17.0799V7.07999C26 6.52771 25.5523 6.07996 25 6.07996H23C22.4477 6.07996 22 6.52771 22 7.07999V17.08C22.0001 17.6322 22.4477 18.08 23 18.08Z" fill="#FF7300"/>
<path d="M10.7166 20.4323C10.9055 20.9513 11.4793 21.2188 11.9983 21.0299L13.8777 20.3458C14.3967 20.1569 14.6643 19.5831 14.4754 19.0642L10.6057 8.43181C10.4168 7.91281 9.84291 7.64524 9.32391 7.83415L7.4445 8.51824C6.9255 8.70715 6.65794 9.28099 6.84684 9.7999L10.7166 20.4323Z" fill="#FF7300"/>
<path d="M34.1224 20.3457L36.0018 21.0298C36.5208 21.2187 37.0946 20.9512 37.2835 20.4322L41.1532 9.7999C41.3421 9.2809 41.0746 8.70715 40.5556 8.51824L38.6762 7.83415C38.1572 7.64524 37.5833 7.91281 37.3944 8.43181L33.5247 19.0641C33.3358 19.583 33.6034 20.1568 34.1224 20.3457Z" fill="#FF7300"/>
<path d="M47.1825 32.1756C40.9923 25.6658 32.7589 22.08 23.999 22.08C15.2401 22.08 7.00673 25.6659 0.817453 32.1756C-0.272484 33.3221 -0.272484 35.1864 0.817453 36.3318L5.42742 41.1825C6.51155 42.3211 8.43558 42.3211 9.5197 41.1825C11.0619 39.5604 12.815 38.2234 14.7215 37.2137C15.6767 36.7215 16.294 35.6854 16.2852 34.7059L16.9825 29.45C22.0866 27.8211 25.965 27.8202 31.0184 29.4491L31.7059 34.5741C31.7059 35.6825 32.2939 36.6943 33.255 37.2225C35.1712 38.2372 36.9243 39.5741 38.4675 41.1952C39.0096 41.7665 39.7363 42.08 40.5137 42.08C41.2902 42.08 42.0168 41.7665 42.5589 41.1962L47.1825 36.333C48.2726 35.1864 48.2726 33.3221 47.1825 32.1756Z" fill="#FF7300"/>
</g>
<defs>
<clipPath id="clip0_2_2318">
<rect width="48" height="48" fill="white" transform="translate(0 0.0799561)"/>
</clipPath>
</defs>
</svg>
