<svg width="33" height="33" viewBox="0 0 33 33" fill="none" xmlns="http://www.w3.org/2000/svg">
<path d="M21.9276 18.8799C20.6009 20.5643 18.6618 21.6353 16.5005 21.6353C14.3379 21.6353 12.4001 20.5643 11.0725 18.8787C9.94119 19.4222 9.00035 20.3343 8.44057 21.5118L7.43408 23.6322C9.55016 26.3178 12.8235 28.0493 16.5005 28.0493C20.1764 28.0493 23.4497 26.3178 25.5658 23.6343L24.5582 21.5118C23.9995 20.3343 23.0574 19.4234 21.9276 18.8799Z" fill="white"/>
<path d="M16.5 19.9853C19.5817 19.9853 22.0893 17.0944 22.0893 13.541C22.0893 9.98748 19.5817 7.09565 16.5 7.09565C13.4182 7.09565 10.9099 9.98748 10.9099 13.541C10.9099 17.0944 13.4182 19.9853 16.5 19.9853ZM16.5 9.29567C18.3693 9.29567 19.889 11.1991 19.889 13.541C19.889 15.8806 18.3692 17.7852 16.5 17.7852C14.6309 17.7852 13.1097 15.8806 13.1097 13.541C13.1097 11.1991 14.6309 9.29567 16.5 9.29567Z" fill="white"/>
<path d="M16.5 0C7.40161 0 0 7.40188 0 16.4995C0 25.5982 7.40161 32.9993 16.5 32.9993C25.5988 32.9993 33 25.5982 33 16.4995C33 7.40188 25.5988 0 16.5 0ZM16.5 29.6994C9.22097 29.6994 3.30003 23.7784 3.30003 16.4995C3.30003 9.22177 9.22104 3.29956 16.5 3.29956C23.779 3.29956 29.7 9.22177 29.7 16.4995C29.7 23.7784 23.779 29.6994 16.5 29.6994Z" fill="white"/>
</svg>
