<svg width="36" height="36" viewBox="0 0 36 36" fill="none" xmlns="http://www.w3.org/2000/svg">
<path d="M25.5761 30.2816H14.9237C10.376 30.2816 6.67608 26.5818 6.67608 22.0341V13.5802C6.67608 9.3526 4.56895 5.43946 1.0396 3.1124C0.40577 2.69452 0.230783 1.842 0.648661 1.20817C1.06654 0.57427 1.919 0.399214 2.55296 0.81723C4.56772 2.14565 6.20225 3.89771 7.37108 5.91494C7.62366 6.19791 9.66041 8.35671 12.9993 8.35671H28.8284C33.1469 8.27595 36.5271 12.6099 35.3981 16.7783L33.5758 24.0411C32.654 27.7153 29.3644 30.2816 25.5761 30.2816ZM9.07847 10.3293C9.307 11.3851 9.42529 12.4737 9.42529 13.5802V22.0341C9.42529 25.0658 11.8919 27.5323 14.9237 27.5323H25.5761C28.1017 27.5323 30.2946 25.8215 30.9093 23.372L32.7314 16.1094C33.4023 13.6324 31.3936 11.058 28.8284 11.1059H12.9992C11.4892 11.1059 10.1748 10.7803 9.07847 10.3293ZM14.2364 34.0617C14.2364 33.1127 13.4671 32.3435 12.5181 32.3435C10.2382 32.4343 10.2402 35.6901 12.5181 35.78C13.4671 35.78 14.2364 35.0107 14.2364 34.0617ZM27.9137 34.0617C27.9137 33.1127 27.1444 32.3435 26.1954 32.3435C23.9156 32.4343 23.9175 35.6901 26.1954 35.78C27.1444 35.78 27.9137 35.0107 27.9137 34.0617ZM30.203 15.2297C30.203 14.4705 29.5875 13.8551 28.8284 13.8551H13.5491C11.7253 13.9277 11.7266 16.5324 13.5491 16.6044H28.8284C29.5875 16.6044 30.203 15.9888 30.203 15.2297Z" fill="white"/>
</svg>
